<svg xmlns="http://www.w3.org/2000/svg" viewBox="0 0 120 132" width="120" height="132">
<defs>
<linearGradient id="mferro" x1="0" y1="0" x2="0" y2="1">
<stop offset="0" stop-color="#e9e9e8"></stop><stop offset=".42" stop-color="#6f6a63"></stop><stop offset="1" stop-color="#423e39"></stop>
</linearGradient>
<linearGradient id="wferro" x1="0" y1="0" x2="0" y2="1">
<stop offset="0" stop-color="#6f6a63"></stop><stop offset="1" stop-color="#2a2723"></stop>
</linearGradient>
<radialGradient id="gferro" cx="50%" cy="42%" r="60%">
<stop offset="0" stop-color="#bebcb9" stop-opacity=".55"></stop><stop offset="1" stop-color="#6f6a63" stop-opacity="0"></stop>
</radialGradient>
</defs>
<ellipse cx="60" cy="56" rx="56" ry="52" fill="url(#gferro)"></ellipse>

<path d="M60 30 L14 20 L2 40 L30 46 L10 58 L34 66 Z" fill="url(#wferro)" stroke="#bebcb9" stroke-width="1.4" stroke-linejoin="round"></path>
<path d="M60 30 L106 20 L118 40 L90 46 L110 58 L86 66 Z" fill="url(#wferro)" stroke="#bebcb9" stroke-width="1.4" stroke-linejoin="round"></path>

<path d="M60 14 L96 30 L96 62 Q96 96 60 120 Q24 96 24 62 L24 30 Z" fill="url(#mferro)" stroke="#bebcb9" stroke-width="2.4" stroke-linejoin="round"></path>
<path d="M60 14 L96 30 L96 62 Q96 96 60 120 Q24 96 24 62 L24 30 Z" fill="none" stroke="#2a2723" stroke-width="1" opacity=".5" transform="scale(.9) translate(6.6,7)"></path>

<path d="M60 40 L80 62 L60 100 L40 62 Z" fill="#423e39"></path>
<path d="M60 40 L80 62 L60 74 L40 62 Z" fill="#bebcb9"></path>
<path d="M60 40 L60 74 L40 62 Z" fill="#e9e9e8" opacity=".85"></path>
<path d="M40 62 L60 74 L60 100 Z" fill="#6f6a63"></path>
<path d="M60 40 L70 51 L60 57 Z" fill="#ffffff" opacity=".55"></path>
</svg>