<svg xmlns="http://www.w3.org/2000/svg" viewBox="0 0 120 132" width="120" height="132">
<defs>
<linearGradient id="mplatina" x1="0" y1="0" x2="0" y2="1">
<stop offset="0" stop-color="#e1f6f6"></stop><stop offset=".42" stop-color="#35c4c0"></stop><stop offset="1" stop-color="#226f6c"></stop>
</linearGradient>
<linearGradient id="wplatina" x1="0" y1="0" x2="0" y2="1">
<stop offset="0" stop-color="#35c4c0"></stop><stop offset="1" stop-color="#184441"></stop>
</linearGradient>
<radialGradient id="gplatina" cx="50%" cy="42%" r="60%">
<stop offset="0" stop-color="#a4e4e3" stop-opacity=".55"></stop><stop offset="1" stop-color="#35c4c0" stop-opacity="0"></stop>
</radialGradient>
</defs>
<ellipse cx="60" cy="56" rx="56" ry="52" fill="url(#gplatina)"></ellipse>

<path d="M60 30 L14 20 L2 40 L30 46 L10 58 L34 66 Z" fill="url(#wplatina)" stroke="#a4e4e3" stroke-width="1.4" stroke-linejoin="round"></path>
<path d="M60 30 L106 20 L118 40 L90 46 L110 58 L86 66 Z" fill="url(#wplatina)" stroke="#a4e4e3" stroke-width="1.4" stroke-linejoin="round"></path>

<path d="M60 14 L96 30 L96 62 Q96 96 60 120 Q24 96 24 62 L24 30 Z" fill="url(#mplatina)" stroke="#a4e4e3" stroke-width="2.4" stroke-linejoin="round"></path>
<path d="M60 14 L96 30 L96 62 Q96 96 60 120 Q24 96 24 62 L24 30 Z" fill="none" stroke="#184441" stroke-width="1" opacity=".5" transform="scale(.9) translate(6.6,7)"></path>

<path d="M60 40 L80 62 L60 100 L40 62 Z" fill="#226f6c"></path>
<path d="M60 40 L80 62 L60 74 L40 62 Z" fill="#a4e4e3"></path>
<path d="M60 40 L60 74 L40 62 Z" fill="#e1f6f6" opacity=".85"></path>
<path d="M40 62 L60 74 L60 100 Z" fill="#35c4c0"></path>
<path d="M60 40 L70 51 L60 57 Z" fill="#ffffff" opacity=".55"></path>
</svg>